All About Steve (2009)(MPEG-4)(IPONE) 2Lions-Team
Komedie met oa. Sandra Bullock




Verenigde Staten
Komedie
98 minuten

geregisseerd door Phil Traill
met Sandra Bullock, Bradley Cooper en Thomas Haden Church

De excentrieke kruiswoordpuzzelaar Mary Horowitz (Sandra Bullock) is ervan overtuigd dat Hartman Hughes, een cameraman bij de CNN, haar grote liefde is. Ze volgt Hartman door het hele land om hem te overtuigen dat ze echt bij elkaar horen.

English

Mary Horowitz writes crossword puzzles for the Sacramento Herald. She's loquacious to a fault. When kids at a career day make fun of her for being single, she accepts a blind date with Steve, the cameraman for a CNN-like news network. Within minutes she decides he's the man for her. He's quickly put off by her constant verbiage and over-the-top advances; he makes an off-hand remark about going on the road with her, and splits. She's moonstruck, writes a sappy crossword puzzle, loses her job, and decides to follow him as the news team crisscrosses the Southwest; Steve's team eggs her on. Then she falls in a mine shaft, and she and Steve become a story; is it a love story?





Source.............: R1 | NTSC | DVD9
Audio..............: English
Subtitles..........: Dutch (Hardcoded)
FRT Subbers........: Hardstylist, Luca en Gonnie

Format                           : MPEG-4
Format profile                   : Base Media
Codec ID                         : isom
File size                        : 1.13 GiB
Duration                         : 1h 38mn
Overall bit rate                 : 1 633 Kbps


Video
ID                               : 1
Format                           : MPEG-4 Visual
Format profile                   : Simple@L1
Format settings, BVOP            : No
Format settings, QPel            : No
Format settings, GMC             : No warppoints
Format settings, Matrix          : Default (H.263)
Codec ID                         : 20
Duration                         : 1h 38mn
Bit rate mode                    : Variable
Bit rate                         : 1 500 Kbps
Width                            : 720 pixels
Height                           : 406 pixels
Display aspect ratio             : 16/9
Frame rate mode                  : Constant
Frame rate                       : 23.976 fps
Resolution                       : 24 bits
Colorimetry                      : 4:2:0
Scan type                        : Progressive
Bits/(Pixel*Frame)               : 0.214
Stream size                      : 1.04 GiB (92%)
Writing library                  : Lavc51.40.4


Audio
ID                               : 2
Format                           : AAC
Format/Info                      : Advanced Audio Codec
Format version                   : Version 4
Format profile                   : LC
Format settings, SBR             : No
Codec ID                         : 40
Duration                         : 1h 38mn
Bit rate mode                    : Variable
Bit rate                         : 128 Kbps
Channel(s)                       : 2 channels
Channel positions                : L R
Sampling rate                    : 48.0 KHz
Resolution                       : 16 bits
Stream size                      : 90.4 MiB (8%)



Weblink : http://www.moviemeter.nl/film/55328
Weblink : http://www.imdb.com/title/tt0881891




***************************************** 

Brought to you by
Pioen 

2Lions Team 





2Lions-Team for all your Dutch MOVIES and more 

***************************************** 

DON T HIT AND RUN Niet gelijk afhaken als de film binnen is blijf seeden. 

Don`t quit after you finished the download, but keep seeding


There are fake torrents from uploaders who use our team name.
Those are not ours, or members from our team.
We 2Lions-Team are not responsible for the fake posts on our name

Wij 2Lions-Team zijn niet verantwoordelijk voor die zieke FAKE posten die op onze naam worden gedaan

Please check our site !!!Info 
to the fakers , get a life !!!